<?xml version="1.0" encoding="utf-8"?>
<!-- Generator: Adobe Illustrator 18.0.0, SVG Export Plug-In . SVG Version: 6.00 Build 0)  -->
<!DOCTYPE svg PUBLIC "-//W3C//DTD SVG 1.1//EN" "http://www.w3.org/Graphics/SVG/1.1/DTD/svg11.dtd" [
	<!ENTITY ns_extend "http://ns.adobe.com/Extensibility/1.0/">
	<!ENTITY ns_ai "http://ns.adobe.com/AdobeIllustrator/10.0/">
	<!ENTITY ns_graphs "http://ns.adobe.com/Graphs/1.0/">
	<!ENTITY ns_vars "http://ns.adobe.com/Variables/1.0/">
	<!ENTITY ns_imrep "http://ns.adobe.com/ImageReplacement/1.0/">
	<!ENTITY ns_sfw "http://ns.adobe.com/SaveForWeb/1.0/">
	<!ENTITY ns_custom "http://ns.adobe.com/GenericCustomNamespace/1.0/">
	<!ENTITY ns_adobe_xpath "http://ns.adobe.com/XPath/1.0/">
]>
<svg version="1.1" id="icons" xmlns:x="&ns_extend;" xmlns:i="&ns_ai;" xmlns:graph="&ns_graphs;"
	 xmlns="http://www.w3.org/2000/svg" xmlns:xlink="http://www.w3.org/1999/xlink" x="0px" y="0px" viewBox="0 0 24 24"
	 enable-background="new 0 0 24 24" xml:space="preserve">
<metadata>
	<sfw  xmlns="&ns_sfw;">
		<slices></slices>
		<sliceSourceBounds  height="552" width="332" y="-463" x="21" bottomLeftOrigin="true"></sliceSourceBounds>
		<optimizationSettings>
			<targetSettings  fileFormat="PNG24Format" targetSettingsID="0">
				<PNG24Format  transparency="true" interlaced="false" noMatteColor="false" filtered="false" matteColor="#FFFFFF">
					</PNG24Format>
			</targetSettings>
		</optimizationSettings>
	</sfw>
</metadata>
<path fill="#ffffff" d="M12,0C9.329,0,6.818,1.04,4.929,2.929C3.04,4.818,2,7.329,2,10c0,0.276,0.224,0.5,0.5,0.5S3,10.276,3,10
	c0-2.403,0.936-4.664,2.636-6.364C7.336,1.937,9.596,1,12,1s4.664,0.937,6.364,2.636C20.064,5.336,21,7.597,21,10
	s-0.936,4.664-2.636,6.364C16.664,18.063,14.404,19,12,19H3.707l3.146-3.146c0.195-0.195,0.195-0.512,0-0.707s-0.512-0.195-0.707,0
	l-3.999,3.999c-0.046,0.046-0.083,0.102-0.109,0.163c-0.051,0.122-0.051,0.26,0,0.382c0.025,0.062,0.062,0.117,0.109,0.163
	l3.999,3.999C6.244,23.951,6.372,24,6.5,24s0.256-0.049,0.354-0.146c0.195-0.195,0.195-0.512,0-0.707L3.707,20H12
	c2.671,0,5.182-1.04,7.071-2.929C20.96,15.182,22,12.671,22,10s-1.04-5.182-2.929-7.071C17.182,1.04,14.671,0,12,0z"/>
</svg>
