<?xml version="1.0" encoding="utf-8"?>
<!-- Generator: Adobe Illustrator 18.0.0, SVG Export Plug-In . SVG Version: 6.00 Build 0)  -->
<!DOCTYPE svg PUBLIC "-//W3C//DTD SVG 1.1//EN" "http://www.w3.org/Graphics/SVG/1.1/DTD/svg11.dtd" [
	<!ENTITY ns_extend "http://ns.adobe.com/Extensibility/1.0/">
	<!ENTITY ns_ai "http://ns.adobe.com/AdobeIllustrator/10.0/">
	<!ENTITY ns_graphs "http://ns.adobe.com/Graphs/1.0/">
	<!ENTITY ns_vars "http://ns.adobe.com/Variables/1.0/">
	<!ENTITY ns_imrep "http://ns.adobe.com/ImageReplacement/1.0/">
	<!ENTITY ns_sfw "http://ns.adobe.com/SaveForWeb/1.0/">
	<!ENTITY ns_custom "http://ns.adobe.com/GenericCustomNamespace/1.0/">
	<!ENTITY ns_adobe_xpath "http://ns.adobe.com/XPath/1.0/">
]>
<svg version="1.1" id="icons" xmlns:x="&ns_extend;" xmlns:i="&ns_ai;" xmlns:graph="&ns_graphs;"
	 xmlns="http://www.w3.org/2000/svg" xmlns:xlink="http://www.w3.org/1999/xlink" x="0px" y="0px" viewBox="0 0 24 24"
	 enable-background="new 0 0 24 24" xml:space="preserve">
<metadata>
	<sfw  xmlns="&ns_sfw;">
		<slices></slices>
		<sliceSourceBounds  height="464" width="332.001" x="20.999" y="-419" bottomLeftOrigin="true"></sliceSourceBounds>
		<optimizationSettings>
			<targetSettings  fileFormat="PNG24Format" targetSettingsID="0">
				<PNG24Format  transparency="true" filtered="false" noMatteColor="false" matteColor="#FFFFFF" interlaced="false">
					</PNG24Format>
			</targetSettings>
		</optimizationSettings>
	</sfw>
</metadata>
<path fill="#ffffff" d="M1.5,24h17c0.827,0,1.5-0.673,1.5-1.5V9.25c0-0.276-0.224-0.5-0.5-0.5S19,8.974,19,9.25V22.5
	c0,0.275-0.224,0.5-0.5,0.5h-17C1.224,23,1,22.775,1,22.5v-17C1,5.225,1.224,5,1.5,5h13.25c0.276,0,0.5-0.224,0.5-0.5
	S15.026,4,14.75,4H1.5C0.673,4,0,4.673,0,5.5v17C0,23.327,0.673,24,1.5,24z"/>
<path fill="#ffffff" d="M20.314,0.633L11.32,9.627c-0.055,0.055-0.096,0.122-0.121,0.195l-1.173,3.52
	c-0.06,0.18-0.013,0.378,0.121,0.512C10.242,13.949,10.37,14,10.5,14c0.053,0,0.106-0.009,0.158-0.025l3.52-1.173
	c0.074-0.024,0.141-0.066,0.195-0.121l8.995-8.995C23.775,3.278,24,2.736,24,2.159s-0.225-1.119-0.632-1.526
	C22.551-0.184,21.13-0.184,20.314,0.633z M22.661,2.979L13.75,11.89l-2.459,0.82l0.82-2.459l8.911-8.911
	c0.438-0.438,1.201-0.438,1.64,0C22.879,1.559,23,1.85,23,2.159S22.879,2.76,22.661,2.979z"/>
</svg>
