<?xml version="1.0" encoding="utf-8"?>
<!-- Generator: Adobe Illustrator 18.0.0, SVG Export Plug-In . SVG Version: 6.00 Build 0)  -->
<!DOCTYPE svg PUBLIC "-//W3C//DTD SVG 1.1//EN" "http://www.w3.org/Graphics/SVG/1.1/DTD/svg11.dtd" [
	<!ENTITY ns_extend "http://ns.adobe.com/Extensibility/1.0/">
	<!ENTITY ns_ai "http://ns.adobe.com/AdobeIllustrator/10.0/">
	<!ENTITY ns_graphs "http://ns.adobe.com/Graphs/1.0/">
	<!ENTITY ns_vars "http://ns.adobe.com/Variables/1.0/">
	<!ENTITY ns_imrep "http://ns.adobe.com/ImageReplacement/1.0/">
	<!ENTITY ns_sfw "http://ns.adobe.com/SaveForWeb/1.0/">
	<!ENTITY ns_custom "http://ns.adobe.com/GenericCustomNamespace/1.0/">
	<!ENTITY ns_adobe_xpath "http://ns.adobe.com/XPath/1.0/">
]>
<svg version="1.1" id="icons" xmlns:x="&ns_extend;" xmlns:i="&ns_ai;" xmlns:graph="&ns_graphs;"
	 xmlns="http://www.w3.org/2000/svg" xmlns:xlink="http://www.w3.org/1999/xlink" x="0px" y="0px" viewBox="0 0 24 24"
	 enable-background="new 0 0 24 24" xml:space="preserve">
<metadata>
	<sfw  xmlns="&ns_sfw;">
		<slices></slices>
		<sliceSourceBounds  height="200" width="330.999" x="22.001" y="-287" bottomLeftOrigin="true"></sliceSourceBounds>
		<optimizationSettings>
			<targetSettings  fileFormat="PNG24Format" targetSettingsID="0">
				<PNG24Format  transparency="true" interlaced="false" filtered="false" noMatteColor="false" matteColor="#FFFFFF">
					</PNG24Format>
			</targetSettings>
		</optimizationSettings>
	</sfw>
</metadata>
<path fill="#ffffff" d="M18,7c-0.415,0-0.8,0.127-1.12,0.344C16.607,6.564,15.872,6,15,6c-0.415,0-0.8,0.127-1.12,0.344
	C13.607,5.564,12.872,5,12,5c-0.366,0-0.705,0.106-1,0.278V2c0-1.103-0.897-2-2-2S7,0.897,7,2v5.513C6.581,7.195,6.065,7,5.5,7
	C4.673,7,4,7.673,4,8.5V16c0,4.411,3.589,8,8,8s8-3.589,8-8V9C20,7.897,19.103,7,18,7z M19,16c0,3.859-3.14,7-7,7s-7-3.141-7-7V8.5
	C5,8.225,5.224,8,5.5,8C6.327,8,7,8.673,7,9.5v4v1C7,14.776,7.224,15,7.5,15S8,14.776,8,14.5v-1v-4V2c0-0.552,0.449-1,1-1
	s1,0.448,1,1v5v3.5c0,0.276,0.224,0.5,0.5,0.5s0.5-0.224,0.5-0.5V7c0-0.552,0.449-1,1-1s1,0.448,1,1v1v2.5
	c0,0.276,0.224,0.5,0.5,0.5s0.5-0.224,0.5-0.5V8c0-0.552,0.449-1,1-1s1,0.448,1,1v1v1.5c0,0.276,0.224,0.5,0.5,0.5
	s0.5-0.224,0.5-0.5V9c0-0.552,0.449-1,1-1s1,0.448,1,1V16z"/>
</svg>
