<?xml version="1.0" encoding="utf-8"?>
<!-- Generator: Adobe Illustrator 18.0.0, SVG Export Plug-In . SVG Version: 6.00 Build 0)  -->
<!DOCTYPE svg PUBLIC "-//W3C//DTD SVG 1.1//EN" "http://www.w3.org/Graphics/SVG/1.1/DTD/svg11.dtd" [
	<!ENTITY ns_extend "http://ns.adobe.com/Extensibility/1.0/">
	<!ENTITY ns_ai "http://ns.adobe.com/AdobeIllustrator/10.0/">
	<!ENTITY ns_graphs "http://ns.adobe.com/Graphs/1.0/">
	<!ENTITY ns_vars "http://ns.adobe.com/Variables/1.0/">
	<!ENTITY ns_imrep "http://ns.adobe.com/ImageReplacement/1.0/">
	<!ENTITY ns_sfw "http://ns.adobe.com/SaveForWeb/1.0/">
	<!ENTITY ns_custom "http://ns.adobe.com/GenericCustomNamespace/1.0/">
	<!ENTITY ns_adobe_xpath "http://ns.adobe.com/XPath/1.0/">
]>
<svg version="1.1" xmlns:x="&ns_extend;" xmlns:i="&ns_ai;" xmlns:graph="&ns_graphs;"
	 xmlns="http://www.w3.org/2000/svg" xmlns:xlink="http://www.w3.org/1999/xlink" x="0px" y="0px" viewBox="0 0 24 24"
	 enable-background="new 0 0 24 24" xml:space="preserve">
<metadata>
	<sfw  xmlns="&ns_sfw;">
		<slices></slices>
		<sliceSourceBounds  height="319.044" width="461.741" x="0" y="-309" bottomLeftOrigin="true"></sliceSourceBounds>
		<optimizationSettings>
			<targetSettings  fileFormat="PNG24Format" targetSettingsID="0">
				<PNG24Format  transparency="true" noMatteColor="false" interlaced="false" filtered="false" matteColor="#FFFFFF">
					</PNG24Format>
			</targetSettings>
		</optimizationSettings>
	</sfw>
</metadata>
<g id="icons">
	<path fill="#ffffff" d="M11.5,24C17.841,24,23,18.841,23,12.5S17.841,1,11.5,1S0,6.159,0,12.5S5.159,24,11.5,24z M11.5,2
		C17.29,2,22,6.71,22,12.5S17.29,23,11.5,23S1,18.29,1,12.5S5.71,2,11.5,2z"/>
	<path fill="#ffffff" d="M5.843,18.657c0.089,0,0.178-0.023,0.257-0.071l7.071-4.243c0.013-0.008,0.02-0.024,0.033-0.033
		c0.021-0.015,0.045-0.023,0.064-0.042c0.019-0.019,0.027-0.042,0.042-0.063c0.009-0.013,0.025-0.02,0.033-0.033l4.243-7.071
		c0.118-0.197,0.087-0.449-0.075-0.611c-0.163-0.163-0.417-0.192-0.61-0.075l-7.071,4.243c-0.013,0.008-0.02,0.024-0.033,0.033
		c-0.021,0.015-0.045,0.023-0.064,0.042c-0.019,0.019-0.027,0.042-0.042,0.063c-0.009,0.013-0.025,0.02-0.033,0.033l-4.243,7.071
		c-0.118,0.197-0.087,0.449,0.075,0.611C5.586,18.606,5.714,18.657,5.843,18.657z M12.815,13.108l-1.923-1.923l4.807-2.884
		L12.815,13.108z M10.185,11.892l1.923,1.923l-4.807,2.884L10.185,11.892z"/>
	<path fill="#ffffff" d="M11.5,5C11.776,5,12,4.776,12,4.5v-1C12,3.224,11.776,3,11.5,3S11,3.224,11,3.5v1C11,4.776,11.224,5,11.5,5
		z"/>
	<path fill="#ffffff" d="M11.5,20c-0.276,0-0.5,0.224-0.5,0.5v1c0,0.276,0.224,0.5,0.5,0.5s0.5-0.224,0.5-0.5v-1
		C12,20.224,11.776,20,11.5,20z"/>
	<path fill="#ffffff" d="M19.5,13h1c0.276,0,0.5-0.224,0.5-0.5S20.776,12,20.5,12h-1c-0.276,0-0.5,0.224-0.5,0.5S19.224,13,19.5,13z
		"/>
	<path fill="#ffffff" d="M3.5,12h-1C2.224,12,2,12.224,2,12.5S2.224,13,2.5,13h1C3.776,13,4,12.776,4,12.5S3.776,12,3.5,12z"/>
</g>
<g id="nyt_x5F_exporter_x5F_info" display="none">
	<text transform="matrix(1 0 0 1 -329 -65)" display="inline"><tspan x="0" y="0" font-family="'MyriadPro-Regular'" font-size="12">&lt;</tspan><tspan x="7.152" y="0" font-family="'MyriadPro-Regular'" font-size="12">n</tspan><tspan x="13.656" y="0" font-family="'MyriadPro-Regular'" font-size="12">yt_p</tspan><tspan x="36.107" y="0" font-family="'MyriadPro-Regular'" font-size="12">r</tspan><tspan x="39.912" y="0" font-family="'MyriadPro-Regular'" font-size="12">e</tspan><tspan x="45.924" y="0" font-family="'MyriadPro-Regular'" font-size="12">f</tspan><tspan x="49.32" y="0" font-family="'MyriadPro-Regular'" font-size="12">s&gt;</tspan><tspan x="0" y="14.4" font-family="'MyriadPro-Regular'" font-size="12">  &lt;</tspan><tspan x="12.24" y="14.4" font-family="'MyriadPro-Regular'" font-size="12">n</tspan><tspan x="18.744" y="14.4" font-family="'MyriadPro-Regular'" font-size="12">yt_p</tspan><tspan x="41.195" y="14.4" font-family="'MyriadPro-Regular'" font-size="12">r</tspan><tspan x="45" y="14.4" font-family="'MyriadPro-Regular'" font-size="12">efix&gt;&lt;/</tspan><tspan x="81.263" y="14.4" font-family="'MyriadPro-Regular'" font-size="12">n</tspan><tspan x="87.767" y="14.4" font-family="'MyriadPro-Regular'" font-size="12">yt_p</tspan><tspan x="110.219" y="14.4" font-family="'MyriadPro-Regular'" font-size="12">r</tspan><tspan x="114.022" y="14.4" font-family="'MyriadPro-Regular'" font-size="12">efix&gt;</tspan><tspan x="0" y="28.8" font-family="'MyriadPro-Regular'" font-size="12">  &lt;</tspan><tspan x="12.24" y="28.8" font-family="'MyriadPro-Regular'" font-size="12">n</tspan><tspan x="18.744" y="28.8" font-family="'MyriadPro-Regular'" font-size="12">yt_suffix&gt;&lt;/</tspan><tspan x="79.487" y="28.8" font-family="'MyriadPro-Regular'" font-size="12">n</tspan><tspan x="85.991" y="28.8" font-family="'MyriadPro-Regular'" font-size="12">yt_suffix&gt;</tspan><tspan x="0" y="43.2" font-family="'MyriadPro-Regular'" font-size="12">  &lt;</tspan><tspan x="12.24" y="43.2" font-family="'MyriadPro-Regular'" font-size="12">n</tspan><tspan x="18.744" y="43.2" font-family="'MyriadPro-Regular'" font-size="12">yt_base_p</tspan><tspan x="70.571" y="43.2" font-family="'MyriadPro-Regular'" font-size="12">a</tspan><tspan x="76.307" y="43.2" font-family="'MyriadPro-Regular'" font-size="12">th&gt;~/</tspan><tspan x="105.358" y="43.2" font-family="'MyriadPro-Regular'" font-size="12">D</tspan><tspan x="113.398" y="43.2" font-family="'MyriadPro-Regular'" font-size="12">esk</tspan><tspan x="129.79" y="43.2" font-family="'MyriadPro-Regular'" font-size="12">t</tspan><tspan x="133.69" y="43.2" font-family="'MyriadPro-Regular'" font-size="12">op/01%20Slimi</tspan><tspan x="209.721" y="43.2" font-family="'MyriadPro-Regular'" font-size="12">c</tspan><tspan x="215.024" y="43.2" font-family="'MyriadPro-Regular'" font-size="12">ons/</tspan><tspan x="237.141" y="43.2" font-family="'MyriadPro-Regular'" font-size="12">P</tspan><tspan x="243.332" y="43.2" font-family="'MyriadPro-Regular'" font-size="12">ng/G</tspan><tspan x="268.568" y="43.2" font-family="'MyriadPro-Regular'" font-size="12">r</tspan><tspan x="272.372" y="43.2" font-family="'MyriadPro-Regular'" font-size="12">ey/384</tspan><tspan x="306.619" y="43.2" font-family="'MyriadPro-Regular'" font-size="12">p</tspan><tspan x="313.279" y="43.2" font-family="'MyriadPro-Regular'" font-size="12">x/</tspan><tspan x="322.951" y="43.2" font-family="'MyriadPro-Regular'" font-size="12">C</tspan><tspan x="329.827" y="43.2" font-family="'MyriadPro-Regular'" font-size="12">amping&lt;/</tspan><tspan x="379.89" y="43.2" font-family="'MyriadPro-Regular'" font-size="12">n</tspan><tspan x="386.395" y="43.2" font-family="'MyriadPro-Regular'" font-size="12">yt_base_p</tspan><tspan x="438.222" y="43.2" font-family="'MyriadPro-Regular'" font-size="12">a</tspan><tspan x="443.957" y="43.2" font-family="'MyriadPro-Regular'" font-size="12">th&gt;</tspan><tspan x="0" y="57.6" font-family="'MyriadPro-Regular'" font-size="12">  &lt;</tspan><tspan x="12.24" y="57.6" font-family="'MyriadPro-Regular'" font-size="12">n</tspan><tspan x="18.744" y="57.6" font-family="'MyriadPro-Regular'" font-size="12">yt_scaling&gt;1600&lt;/</tspan><tspan x="112.33" y="57.6" font-family="'MyriadPro-Regular'" font-size="12">n</tspan><tspan x="118.834" y="57.6" font-family="'MyriadPro-Regular'" font-size="12">yt_scaling&gt;</tspan><tspan x="0" y="72" font-family="'MyriadPro-Regular'" font-size="12">  &lt;</tspan><tspan x="12.24" y="72" font-family="'MyriadPro-Regular'" font-size="12">n</tspan><tspan x="18.744" y="72" font-family="'MyriadPro-Regular'" font-size="12">yt_t</tspan><tspan x="38.339" y="72" font-family="'MyriadPro-Regular'" font-size="12">r</tspan><tspan x="42.204" y="72" font-family="'MyriadPro-Regular'" font-size="12">anspa</tspan><tspan x="72.011" y="72" font-family="'MyriadPro-Regular'" font-size="12">r</tspan><tspan x="75.815" y="72" font-family="'MyriadPro-Regular'" font-size="12">en</tspan><tspan x="88.487" y="72" font-family="'MyriadPro-Regular'" font-size="12">c</tspan><tspan x="94.079" y="72" font-family="'MyriadPro-Regular'" font-size="12">y&gt;true&lt;/</tspan><tspan x="138.67" y="72" font-family="'MyriadPro-Regular'" font-size="12">n</tspan><tspan x="145.174" y="72" font-family="'MyriadPro-Regular'" font-size="12">yt_t</tspan><tspan x="164.77" y="72" font-family="'MyriadPro-Regular'" font-size="12">r</tspan><tspan x="168.634" y="72" font-family="'MyriadPro-Regular'" font-size="12">anspa</tspan><tspan x="198.441" y="72" font-family="'MyriadPro-Regular'" font-size="12">r</tspan><tspan x="202.246" y="72" font-family="'MyriadPro-Regular'" font-size="12">en</tspan><tspan x="214.918" y="72" font-family="'MyriadPro-Regular'" font-size="12">c</tspan><tspan x="220.51" y="72" font-family="'MyriadPro-Regular'" font-size="12">y&gt;</tspan><tspan x="0" y="86.4" font-family="'MyriadPro-Regular'" font-size="12">  &lt;</tspan><tspan x="12.24" y="86.4" font-family="'MyriadPro-Regular'" font-size="12">n</tspan><tspan x="18.744" y="86.4" font-family="'MyriadPro-Regular'" font-size="12">yt_embed</tspan><tspan x="69.995" y="86.4" font-family="'MyriadPro-Regular'" font-size="12">I</tspan><tspan x="72.983" y="86.4" font-family="'MyriadPro-Regular'" font-size="12">mage&gt;true&lt;/</tspan><tspan x="140.434" y="86.4" font-family="'MyriadPro-Regular'" font-size="12">n</tspan><tspan x="146.938" y="86.4" font-family="'MyriadPro-Regular'" font-size="12">yt_embed</tspan><tspan x="198.189" y="86.4" font-family="'MyriadPro-Regular'" font-size="12">I</tspan><tspan x="201.178" y="86.4" font-family="'MyriadPro-Regular'" font-size="12">mage&gt;</tspan><tspan x="0" y="100.8" font-family="'MyriadPro-Regular'" font-size="12">  &lt;</tspan><tspan x="12.24" y="100.8" font-family="'MyriadPro-Regular'" font-size="12">n</tspan><tspan x="18.744" y="100.8" font-family="'MyriadPro-Regular'" font-size="12">yt_embed</tspan><tspan x="69.995" y="100.8" font-family="'MyriadPro-Regular'" font-size="12">F</tspan><tspan x="75.467" y="100.8" font-family="'MyriadPro-Regular'" font-size="12">o</tspan><tspan x="82.055" y="100.8" font-family="'MyriadPro-Regular'" font-size="12">n</tspan><tspan x="88.667" y="100.8" font-family="'MyriadPro-Regular'" font-size="12">t&gt;true&lt;/</tspan><tspan x="131.579" y="100.8" font-family="'MyriadPro-Regular'" font-size="12">n</tspan><tspan x="138.083" y="100.8" font-family="'MyriadPro-Regular'" font-size="12">yt_embed</tspan><tspan x="189.334" y="100.8" font-family="'MyriadPro-Regular'" font-size="12">F</tspan><tspan x="194.806" y="100.8" font-family="'MyriadPro-Regular'" font-size="12">o</tspan><tspan x="201.395" y="100.8" font-family="'MyriadPro-Regular'" font-size="12">n</tspan><tspan x="208.006" y="100.8" font-family="'MyriadPro-Regular'" font-size="12">t&gt;</tspan><tspan x="0" y="115.2" font-family="'MyriadPro-Regular'" font-size="12">  &lt;</tspan><tspan x="12.24" y="115.2" font-family="'MyriadPro-Regular'" font-size="12">n</tspan><tspan x="18.744" y="115.2" font-family="'MyriadPro-Regular'" font-size="12">yt_t</tspan><tspan x="38.339" y="115.2" font-family="'MyriadPro-Regular'" font-size="12">r</tspan><tspan x="42.312" y="115.2" font-family="'MyriadPro-Regular'" font-size="12">im</tspan><tspan x="55.127" y="115.2" font-family="'MyriadPro-Regular'" font-size="12">E</tspan><tspan x="60.983" y="115.2" font-family="'MyriadPro-Regular'" font-size="12">dges&gt;false&lt;/</tspan><tspan x="126.526" y="115.2" font-family="'MyriadPro-Regular'" font-size="12">n</tspan><tspan x="133.03" y="115.2" font-family="'MyriadPro-Regular'" font-size="12">yt_t</tspan><tspan x="152.626" y="115.2" font-family="'MyriadPro-Regular'" font-size="12">r</tspan><tspan x="156.598" y="115.2" font-family="'MyriadPro-Regular'" font-size="12">im</tspan><tspan x="169.414" y="115.2" font-family="'MyriadPro-Regular'" font-size="12">E</tspan><tspan x="175.27" y="115.2" font-family="'MyriadPro-Regular'" font-size="12">dges&gt;</tspan><tspan x="0" y="129.6" font-family="'MyriadPro-Regular'" font-size="12">  &lt;</tspan><tspan x="12.24" y="129.6" font-family="'MyriadPro-Regular'" font-size="12">n</tspan><tspan x="18.744" y="129.6" font-family="'MyriadPro-Regular'" font-size="12">yt_inner</tspan><tspan x="60.431" y="129.6" font-family="'MyriadPro-Regular'" font-size="12">P</tspan><tspan x="66.503" y="129.6" font-family="'MyriadPro-Regular'" font-size="12">adding&gt;false&lt;/</tspan><tspan x="143.302" y="129.6" font-family="'MyriadPro-Regular'" font-size="12">n</tspan><tspan x="149.806" y="129.6" font-family="'MyriadPro-Regular'" font-size="12">yt_inner</tspan><tspan x="191.494" y="129.6" font-family="'MyriadPro-Regular'" font-size="12">P</tspan><tspan x="197.565" y="129.6" font-family="'MyriadPro-Regular'" font-size="12">adding&gt;</tspan><tspan x="0" y="144" font-family="'MyriadPro-Regular'" font-size="12">  &lt;</tspan><tspan x="12.24" y="144" font-family="'MyriadPro-Regular'" font-size="12">n</tspan><tspan x="18.744" y="144" font-family="'MyriadPro-Regular'" font-size="12">yt_</tspan><tspan x="34.368" y="144" font-family="'MyriadPro-Regular'" font-size="12">f</tspan><tspan x="37.716" y="144" font-family="'MyriadPro-Regular'" font-size="12">o</tspan><tspan x="44.304" y="144" font-family="'MyriadPro-Regular'" font-size="12">r</tspan><tspan x="48.275" y="144" font-family="'MyriadPro-Regular'" font-size="12">m</tspan><tspan x="58.284" y="144" font-family="'MyriadPro-Regular'" font-size="12">a</tspan><tspan x="64.02" y="144" font-family="'MyriadPro-Regular'" font-size="12">t&gt;PNG 24&lt;/</tspan><tspan x="123.298" y="144" font-family="'MyriadPro-Regular'" font-size="12">n</tspan><tspan x="129.803" y="144" font-family="'MyriadPro-Regular'" font-size="12">yt_</tspan><tspan x="145.426" y="144" font-family="'MyriadPro-Regular'" font-size="12">f</tspan><tspan x="148.774" y="144" font-family="'MyriadPro-Regular'" font-size="12">o</tspan><tspan x="155.362" y="144" font-family="'MyriadPro-Regular'" font-size="12">r</tspan><tspan x="159.334" y="144" font-family="'MyriadPro-Regular'" font-size="12">m</tspan><tspan x="169.342" y="144" font-family="'MyriadPro-Regular'" font-size="12">a</tspan><tspan x="175.078" y="144" font-family="'MyriadPro-Regular'" font-size="12">t&gt;</tspan><tspan x="0" y="158.4" font-family="'MyriadPro-Regular'" font-size="12">  &lt;</tspan><tspan x="12.24" y="158.4" font-family="'MyriadPro-Regular'" font-size="12">n</tspan><tspan x="18.744" y="158.4" font-family="'MyriadPro-Regular'" font-size="12">yt_a</tspan><tspan x="40.151" y="158.4" font-family="'MyriadPro-Regular'" font-size="12">r</tspan><tspan x="44.363" y="158.4" font-family="'MyriadPro-Regular'" font-size="12">tboa</tspan><tspan x="67.535" y="158.4" font-family="'MyriadPro-Regular'" font-size="12">r</tspan><tspan x="71.339" y="158.4" font-family="'MyriadPro-Regular'" font-size="12">ds&gt;all&lt;/</tspan><tspan x="112.727" y="158.4" font-family="'MyriadPro-Regular'" font-size="12">n</tspan><tspan x="119.23" y="158.4" font-family="'MyriadPro-Regular'" font-size="12">yt_a</tspan><tspan x="140.638" y="158.4" font-family="'MyriadPro-Regular'" font-size="12">r</tspan><tspan x="144.85" y="158.4" font-family="'MyriadPro-Regular'" font-size="12">tboa</tspan><tspan x="168.021" y="158.4" font-family="'MyriadPro-Regular'" font-size="12">r</tspan><tspan x="171.826" y="158.4" font-family="'MyriadPro-Regular'" font-size="12">ds&gt;</tspan><tspan x="0" y="172.8" font-family="'MyriadPro-Regular'" font-size="12">  &lt;</tspan><tspan x="12.24" y="172.8" font-family="'MyriadPro-Regular'" font-size="12">n</tspan><tspan x="18.744" y="172.8" font-family="'MyriadPro-Regular'" font-size="12">yt_l</tspan><tspan x="37.2" y="172.8" font-family="'MyriadPro-Regular'" font-size="12">a</tspan><tspan x="42.888" y="172.8" font-family="'MyriadPro-Regular'" font-size="12">y</tspan><tspan x="48.419" y="172.8" font-family="'MyriadPro-Regular'" font-size="12">ers&gt;none&lt;/</tspan><tspan x="107.447" y="172.8" font-family="'MyriadPro-Regular'" font-size="12">n</tspan><tspan x="113.951" y="172.8" font-family="'MyriadPro-Regular'" font-size="12">yt_l</tspan><tspan x="132.406" y="172.8" font-family="'MyriadPro-Regular'" font-size="12">a</tspan><tspan x="138.095" y="172.8" font-family="'MyriadPro-Regular'" font-size="12">y</tspan><tspan x="143.626" y="172.8" font-family="'MyriadPro-Regular'" font-size="12">ers&gt;</tspan><tspan x="0" y="187.2" font-family="'MyriadPro-Regular'" font-size="12">  &lt;</tspan><tspan x="12.24" y="187.2" font-family="'MyriadPro-Regular'" font-size="12">n</tspan><tspan x="18.744" y="187.2" font-family="'MyriadPro-Regular'" font-size="12">yt_</tspan><tspan x="34.368" y="187.2" font-family="'MyriadPro-Regular'" font-size="12">e</tspan><tspan x="40.344" y="187.2" font-family="'MyriadPro-Regular'" font-size="12">xpo</tspan><tspan x="59.315" y="187.2" font-family="'MyriadPro-Regular'" font-size="12">r</tspan><tspan x="63.527" y="187.2" font-family="'MyriadPro-Regular'" font-size="12">t</tspan><tspan x="67.499" y="187.2" font-family="'MyriadPro-Regular'" font-size="12">A</tspan><tspan x="74.807" y="187.2" font-family="'MyriadPro-Regular'" font-size="12">r</tspan><tspan x="79.019" y="187.2" font-family="'MyriadPro-Regular'" font-size="12">tboa</tspan><tspan x="102.19" y="187.2" font-family="'MyriadPro-Regular'" font-size="12">r</tspan><tspan x="105.995" y="187.2" font-family="'MyriadPro-Regular'" font-size="12">ds&gt;true&lt;/</tspan><tspan x="156.454" y="187.2" font-family="'MyriadPro-Regular'" font-size="12">n</tspan><tspan x="162.958" y="187.2" font-family="'MyriadPro-Regular'" font-size="12">yt_</tspan><tspan x="178.582" y="187.2" font-family="'MyriadPro-Regular'" font-size="12">e</tspan><tspan x="184.558" y="187.2" font-family="'MyriadPro-Regular'" font-size="12">xpo</tspan><tspan x="203.529" y="187.2" font-family="'MyriadPro-Regular'" font-size="12">r</tspan><tspan x="207.741" y="187.2" font-family="'MyriadPro-Regular'" font-size="12">t</tspan><tspan x="211.713" y="187.2" font-family="'MyriadPro-Regular'" font-size="12">A</tspan><tspan x="219.021" y="187.2" font-family="'MyriadPro-Regular'" font-size="12">r</tspan><tspan x="223.233" y="187.2" font-family="'MyriadPro-Regular'" font-size="12">tboa</tspan><tspan x="246.405" y="187.2" font-family="'MyriadPro-Regular'" font-size="12">r</tspan><tspan x="250.209" y="187.2" font-family="'MyriadPro-Regular'" font-size="12">ds&gt;</tspan><tspan x="0" y="201.6" font-family="'MyriadPro-Regular'" font-size="12">  &lt;</tspan><tspan x="12.24" y="201.6" font-family="'MyriadPro-Regular'" font-size="12">n</tspan><tspan x="18.744" y="201.6" font-family="'MyriadPro-Regular'" font-size="12">yt_i</tspan><tspan x="37.176" y="201.6" font-family="'MyriadPro-Regular'" font-size="12">g</tspan><tspan x="43.812" y="201.6" font-family="'MyriadPro-Regular'" font-size="12">no</tspan><tspan x="57.06" y="201.6" font-family="'MyriadPro-Regular'" font-size="12">r</tspan><tspan x="60.863" y="201.6" font-family="'MyriadPro-Regular'" font-size="12">e</tspan><tspan x="66.875" y="201.6" font-family="'MyriadPro-Regular'" font-size="12">W</tspan><tspan x="76.631" y="201.6" font-family="'MyriadPro-Regular'" font-size="12">a</tspan><tspan x="82.415" y="201.6" font-family="'MyriadPro-Regular'" font-size="12">r</tspan><tspan x="86.387" y="201.6" font-family="'MyriadPro-Regular'" font-size="12">nings&gt;true&lt;/</tspan><tspan x="152.914" y="201.6" font-family="'MyriadPro-Regular'" font-size="12">n</tspan><tspan x="159.418" y="201.6" font-family="'MyriadPro-Regular'" font-size="12">yt_i</tspan><tspan x="177.85" y="201.6" font-family="'MyriadPro-Regular'" font-size="12">g</tspan><tspan x="184.486" y="201.6" font-family="'MyriadPro-Regular'" font-size="12">no</tspan><tspan x="197.733" y="201.6" font-family="'MyriadPro-Regular'" font-size="12">r</tspan><tspan x="201.538" y="201.6" font-family="'MyriadPro-Regular'" font-size="12">e</tspan><tspan x="207.55" y="201.6" font-family="'MyriadPro-Regular'" font-size="12">W</tspan><tspan x="217.306" y="201.6" font-family="'MyriadPro-Regular'" font-size="12">a</tspan><tspan x="223.09" y="201.6" font-family="'MyriadPro-Regular'" font-size="12">r</tspan><tspan x="227.062" y="201.6" font-family="'MyriadPro-Regular'" font-size="12">nings&gt;</tspan><tspan x="0" y="216" font-family="'MyriadPro-Regular'" font-size="12">&lt;/</tspan><tspan x="11.268" y="216" font-family="'MyriadPro-Regular'" font-size="12">n</tspan><tspan x="17.772" y="216" font-family="'MyriadPro-Regular'" font-size="12">yt_p</tspan><tspan x="40.224" y="216" font-family="'MyriadPro-Regular'" font-size="12">r</tspan><tspan x="44.027" y="216" font-family="'MyriadPro-Regular'" font-size="12">e</tspan><tspan x="50.04" y="216" font-family="'MyriadPro-Regular'" font-size="12">f</tspan><tspan x="53.436" y="216" font-family="'MyriadPro-Regular'" font-size="12">s&gt;</tspan></text>
</g>
</svg>
