<?xml version="1.0" encoding="utf-8"?>
<!-- Generator: Adobe Illustrator 18.0.0, SVG Export Plug-In . SVG Version: 6.00 Build 0)  -->
<!DOCTYPE svg PUBLIC "-//W3C//DTD SVG 1.1//EN" "http://www.w3.org/Graphics/SVG/1.1/DTD/svg11.dtd" [
	<!ENTITY ns_extend "http://ns.adobe.com/Extensibility/1.0/">
	<!ENTITY ns_ai "http://ns.adobe.com/AdobeIllustrator/10.0/">
	<!ENTITY ns_graphs "http://ns.adobe.com/Graphs/1.0/">
	<!ENTITY ns_vars "http://ns.adobe.com/Variables/1.0/">
	<!ENTITY ns_imrep "http://ns.adobe.com/ImageReplacement/1.0/">
	<!ENTITY ns_sfw "http://ns.adobe.com/SaveForWeb/1.0/">
	<!ENTITY ns_custom "http://ns.adobe.com/GenericCustomNamespace/1.0/">
	<!ENTITY ns_adobe_xpath "http://ns.adobe.com/XPath/1.0/">
]>
<svg version="1.1" id="icons" xmlns:x="&ns_extend;" xmlns:i="&ns_ai;" xmlns:graph="&ns_graphs;"
	 xmlns="http://www.w3.org/2000/svg" xmlns:xlink="http://www.w3.org/1999/xlink" x="0px" y="0px" viewBox="0 0 24 24"
	 enable-background="new 0 0 24 24" xml:space="preserve">
<metadata>
	<sfw  xmlns="&ns_sfw;">
		<slices></slices>
		<sliceSourceBounds  height="200" width="332" x="21" y="-287" bottomLeftOrigin="true"></sliceSourceBounds>
		<optimizationSettings>
			<targetSettings  fileFormat="PNG24Format" targetSettingsID="0">
				<PNG24Format  transparency="true" filtered="false" noMatteColor="false" matteColor="#FFFFFF" interlaced="false">
					</PNG24Format>
			</targetSettings>
		</optimizationSettings>
	</sfw>
</metadata>
<path fill="#ffffff" d="M4,16.35v5.15c0,0.225,0.15,0.422,0.367,0.481C4.411,21.994,4.456,22,4.5,22c0.172,0,0.337-0.09,0.429-0.243
	l2.221-3.707c0.22,0.495,0.478,0.992,0.772,1.49l-0.869,1.737c-0.078,0.155-0.069,0.339,0.022,0.486S7.327,22,7.5,22h1.047
	l-0.513,1.318c-0.06,0.154-0.04,0.328,0.053,0.464C8.181,23.919,8.335,24,8.5,24h7c0.007,0,0.013,0,0.02,0
	c0.276,0,0.5-0.224,0.5-0.5c0-0.113-0.038-0.217-0.101-0.301L15.453,22H16.5c0.007-0.001,0.013-0.001,0.02,0
	c0.276,0,0.5-0.224,0.5-0.5c0-0.129-0.048-0.246-0.128-0.334l-0.813-1.627c0.294-0.498,0.552-0.995,0.772-1.49l2.221,3.707
	C19.163,21.91,19.328,22,19.5,22c0.044,0,0.089-0.006,0.133-0.019C19.85,21.922,20,21.725,20,21.5v-5.15
	c0-1.332-0.742-2.53-1.941-3.129l-0.085-0.041c0.119-3.758-1.389-7.119-2.876-9.486c-0.005-0.012-0.004-0.024-0.01-0.036
	c-0.02-0.04-0.05-0.069-0.078-0.101c-1.336-2.094-2.625-3.38-2.661-3.414c-0.194-0.189-0.504-0.189-0.698,0
	c-0.035,0.035-1.325,1.32-2.661,3.415c-0.028,0.032-0.058,0.061-0.078,0.1c-0.006,0.012-0.005,0.024-0.01,0.036
	c-1.487,2.368-2.995,5.728-2.876,9.486l-0.09,0.044C4.742,13.819,4,15.018,4,16.35z M14.769,23H9.231l0.389-1h4.761L14.769,23z
	 M14.722,21H9.278H8.309l0.5-1h6.382l0.5,1H14.722z M19,16.35v3.343l-1.646-2.748c-0.013-0.021-0.032-0.041-0.046-0.061
	c0.293-0.871,0.484-1.732,0.585-2.576C18.573,14.768,19,15.513,19,16.35z M12,1.228c0.408,0.45,1.124,1.292,1.888,2.43
	c-1.224,0.458-2.552,0.458-3.776,0C10.876,2.521,11.592,1.678,12,1.228z M9.567,4.511C10.352,4.834,11.175,5.006,12,5.006
	s1.648-0.172,2.433-0.495C16.526,7.96,18.521,13.42,15.244,19H8.756C5.479,13.42,7.474,7.96,9.567,4.511z M6.693,16.884
	c-0.016,0.024-0.036,0.045-0.052,0.069L5,19.692V16.35c0-0.838,0.428-1.584,1.108-2.044C6.209,15.151,6.399,16.012,6.693,16.884z"/>
<path fill="#ffffff" d="M12,15c2.206,0,4-1.794,4-4c0-2.206-1.794-4-4-4s-4,1.794-4,4C8,13.206,9.794,15,12,15z M12,8
	c1.654,0,3,1.346,3,3s-1.346,3-3,3s-3-1.346-3-3S10.346,8,12,8z"/>
<path fill="#ffffff" d="M12,10c0.551,0,1,0.449,1,1c0,0.276,0.224,0.5,0.5,0.5S14,11.276,14,11c0-1.103-0.897-2-2-2
	c-0.276,0-0.5,0.224-0.5,0.5S11.724,10,12,10z"/>
</svg>
