<?xml version="1.0" encoding="utf-8"?>
<!-- Generator: Adobe Illustrator 18.0.0, SVG Export Plug-In . SVG Version: 6.00 Build 0)  -->
<!DOCTYPE svg PUBLIC "-//W3C//DTD SVG 1.1//EN" "http://www.w3.org/Graphics/SVG/1.1/DTD/svg11.dtd" [
	<!ENTITY ns_extend "http://ns.adobe.com/Extensibility/1.0/">
	<!ENTITY ns_ai "http://ns.adobe.com/AdobeIllustrator/10.0/">
	<!ENTITY ns_graphs "http://ns.adobe.com/Graphs/1.0/">
	<!ENTITY ns_vars "http://ns.adobe.com/Variables/1.0/">
	<!ENTITY ns_imrep "http://ns.adobe.com/ImageReplacement/1.0/">
	<!ENTITY ns_sfw "http://ns.adobe.com/SaveForWeb/1.0/">
	<!ENTITY ns_custom "http://ns.adobe.com/GenericCustomNamespace/1.0/">
	<!ENTITY ns_adobe_xpath "http://ns.adobe.com/XPath/1.0/">
]>
<svg version="1.1" id="icons" xmlns:x="&ns_extend;" xmlns:i="&ns_ai;" xmlns:graph="&ns_graphs;"
	 xmlns="http://www.w3.org/2000/svg" xmlns:xlink="http://www.w3.org/1999/xlink" x="0px" y="0px" viewBox="0 0 24 24"
	 enable-background="new 0 0 24 24" xml:space="preserve">
<metadata>
	<sfw  xmlns="&ns_sfw;">
		<slices></slices>
		<sliceSourceBounds  height="464" width="332.001" x="20.999" y="-419" bottomLeftOrigin="true"></sliceSourceBounds>
		<optimizationSettings>
			<targetSettings  fileFormat="PNG24Format" targetSettingsID="0">
				<PNG24Format  transparency="true" filtered="false" noMatteColor="false" matteColor="#FFFFFF" interlaced="false">
					</PNG24Format>
			</targetSettings>
		</optimizationSettings>
	</sfw>
</metadata>
<path fill="#ffffff" d="M21.5,11h-6c-0.276,0-0.5,0.224-0.5,0.5s0.224,0.5,0.5,0.5h6c0.276,0,0.5-0.224,0.5-0.5S21.776,11,21.5,11z"
	/>
<path fill="#ffffff" d="M21.5,14h-6c-0.276,0-0.5,0.224-0.5,0.5s0.224,0.5,0.5,0.5h6c0.276,0,0.5-0.224,0.5-0.5S21.776,14,21.5,14z"
	/>
<path fill="#ffffff" d="M22,17.5c0-0.276-0.224-0.5-0.5-0.5h-19C2.224,17,2,17.224,2,17.5S2.224,18,2.5,18h19
	C21.776,18,22,17.776,22,17.5z"/>
<path fill="#ffffff" d="M2.5,20C2.224,20,2,20.224,2,20.5S2.224,21,2.5,21h17c0.276,0,0.5-0.224,0.5-0.5S19.776,20,19.5,20H2.5z"/>
<path fill="#ffffff" d="M23.5,8h-7.82c-0.276,0-0.5,0.224-0.5,0.5S15.404,9,15.68,9H23v9.906C23,21.163,21.164,23,18.906,23H1V9
	h4.33c0.276,0,0.5-0.224,0.5-0.5S5.606,8,5.33,8H0.5C0.224,8,0,8.224,0,8.5v15C0,23.776,0.224,24,0.5,24h18.406
	C21.715,24,24,21.715,24,18.906V8.5C24,8.224,23.776,8,23.5,8z"/>
<path fill="#ffffff" d="M18,3.159c0-0.577-0.225-1.119-0.632-1.526c-0.816-0.816-2.237-0.816-3.054,0L5.32,10.627
	c-0.055,0.055-0.096,0.122-0.121,0.195l-1.173,3.52c-0.06,0.18-0.013,0.378,0.121,0.512C4.242,14.949,4.37,15,4.5,15
	c0.053,0,0.106-0.009,0.158-0.025l3.52-1.173c0.074-0.024,0.141-0.066,0.195-0.121l8.995-8.995C17.775,4.278,18,3.736,18,3.159z
	 M16.661,3.979L7.75,12.89l-2.459,0.82l0.82-2.459l8.911-8.911c0.438-0.438,1.201-0.438,1.64,0C16.879,2.559,17,2.85,17,3.159
	S16.879,3.76,16.661,3.979z"/>
</svg>
