<?xml version="1.0" encoding="utf-8"?>
<!-- Generator: Adobe Illustrator 18.0.0, SVG Export Plug-In . SVG Version: 6.00 Build 0)  -->
<!DOCTYPE svg PUBLIC "-//W3C//DTD SVG 1.1//EN" "http://www.w3.org/Graphics/SVG/1.1/DTD/svg11.dtd" [
	<!ENTITY ns_extend "http://ns.adobe.com/Extensibility/1.0/">
	<!ENTITY ns_ai "http://ns.adobe.com/AdobeIllustrator/10.0/">
	<!ENTITY ns_graphs "http://ns.adobe.com/Graphs/1.0/">
	<!ENTITY ns_vars "http://ns.adobe.com/Variables/1.0/">
	<!ENTITY ns_imrep "http://ns.adobe.com/ImageReplacement/1.0/">
	<!ENTITY ns_sfw "http://ns.adobe.com/SaveForWeb/1.0/">
	<!ENTITY ns_custom "http://ns.adobe.com/GenericCustomNamespace/1.0/">
	<!ENTITY ns_adobe_xpath "http://ns.adobe.com/XPath/1.0/">
]>
<svg version="1.1" id="icons" xmlns:x="&ns_extend;" xmlns:i="&ns_ai;" xmlns:graph="&ns_graphs;"
	 xmlns="http://www.w3.org/2000/svg" xmlns:xlink="http://www.w3.org/1999/xlink" x="0px" y="0px" viewBox="0 0 24 24"
	 enable-background="new 0 0 24 24" xml:space="preserve">
<metadata>
	<sfw  xmlns="&ns_sfw;">
		<slices></slices>
		<sliceSourceBounds  height="243" width="332" x="21" y="-309" bottomLeftOrigin="true"></sliceSourceBounds>
		<optimizationSettings>
			<targetSettings  fileFormat="PNG24Format" targetSettingsID="0">
				<PNG24Format  transparency="true" noMatteColor="false" interlaced="false" filtered="false" matteColor="#FFFFFF">
					</PNG24Format>
			</targetSettings>
		</optimizationSettings>
	</sfw>
</metadata>
<path fill="#ffffff" d="M23.5,3H20V1.5C20,1.224,19.776,1,19.5,1S19,1.224,19,1.5V3h-4V1.5C15,1.224,14.776,1,14.5,1
	S14,1.224,14,1.5V3h-4V1.5C10,1.224,9.776,1,9.5,1S9,1.224,9,1.5V3H5V1.5C5,1.224,4.776,1,4.5,1S4,1.224,4,1.5V3H0.5
	C0.224,3,0,3.224,0,3.5v19C0,22.776,0.224,23,0.5,23h23c0.276,0,0.5-0.224,0.5-0.5v-19C24,3.224,23.776,3,23.5,3z M4,4v0.5
	C4,4.776,4.224,5,4.5,5S5,4.776,5,4.5V4h4v0.5C9,4.776,9.224,5,9.5,5S10,4.776,10,4.5V4h4v0.5C14,4.776,14.224,5,14.5,5
	S15,4.776,15,4.5V4h4v0.5C19,4.776,19.224,5,19.5,5S20,4.776,20,4.5V4h3v3H1V4H4z M1,22V8h22v14H1z"/>
<path fill="#ffffff" d="M12,9c-3.309,0-6,2.691-6,6s2.691,6,6,6s6-2.691,6-6S15.309,9,12,9z M12.5,19.949V19.5
	c0-0.276-0.224-0.5-0.5-0.5s-0.5,0.224-0.5,0.5v0.449c-2.353-0.238-4.211-2.097-4.449-4.449H7.5C7.776,15.5,8,15.276,8,15
	s-0.224-0.5-0.5-0.5H7.051c0.238-2.353,2.097-4.211,4.449-4.449V10.5c0,0.276,0.224,0.5,0.5,0.5s0.5-0.224,0.5-0.5v-0.449
	c2.353,0.238,4.211,2.097,4.449,4.449H16.5c-0.276,0-0.5,0.224-0.5,0.5s0.224,0.5,0.5,0.5h0.449
	C16.711,17.853,14.853,19.711,12.5,19.949z"/>
<path fill="#ffffff" d="M12.5,14.793V13c0-0.276-0.224-0.5-0.5-0.5s-0.5,0.224-0.5,0.5v2c0,0.065,0.013,0.13,0.038,0.191
	c0.025,0.062,0.062,0.117,0.109,0.163l2.062,2.062c0.098,0.098,0.226,0.146,0.354,0.146s0.256-0.049,0.354-0.146
	c0.195-0.195,0.195-0.512,0-0.707L12.5,14.793z"/>
</svg>
