<?xml version="1.0" encoding="UTF-8" standalone="no"?>
<svg width="416px" height="303px" viewBox="0 0 416 303" version="1.1" xmlns="http://www.w3.org/2000/svg" xmlns:xlink="http://www.w3.org/1999/xlink">
    <!-- Generator: Sketch 40 (33762) - http://www.bohemiancoding.com/sketch -->
    <title>Group 2</title>
    <desc>Created with Sketch.</desc>
    <defs></defs>
    <g id="Page-1" stroke="none" stroke-width="1" fill="none" fill-rule="evenodd">
        <g id="Group-2">
            <path d="M273.35,296.517 C304.58,292.399 331.61,262.469 342.67,235.162 C349.14,219.198 354.09,200.305 345.1,184.467 C332.23,161.781 296.34,158.952 273.24,162.71 C249.2,166.622 234.26,193.071 245.11,213.628 C259.91,241.698 271,263.604 273.35,296.517" id="Fill-61" fill="#5AB6B4"></path>
            <path d="M114.11,76.339 C121.84,60.813 137.72,44.644 150.84,33.534 C192.45,-1.715 262.5,-9.032 312.22,11.209 C330.84,18.791 352.66,31.754 366.45,46.611 C403.45,86.463 424.89,143.547 393.32,193.641 C347.7,266.04 236.01,275.138 158.76,272.486 C115.9,271.014 72.66,260.927 40.31,231.685 C10.82,205.045 -12.68,163.346 7.83,123.572 C10.8,117.805 15.26,112.625 19.3,107.797 C5.12,89.575 -2.41,73.612 7.11,49.927 C33.26,49.93 40.01,72.675 45.85,92.72 C45.59,91.826 62.67,86.176 64.41,85.851 C71.69,84.498 79.26,85.071 86.58,85.836 C87.26,85.907 84.85,96.766 84.54,97.671 C81.54,106.459 74.57,114.211 66.08,118.004 C61.87,119.877 57.5,120.654 52.93,120.72 C52.59,120.725 51.69,120.665 50.54,120.604 C47.56,120.447 42.96,120.289 42.52,121.298 C40.27,126.44 39.1,132.481 39.81,138.076 C40.69,145.103 49.87,150.404 56.73,149.56 C75.07,147.297 86.92,132.629 95.95,115.763 C103.17,102.286 108.6,87.405 114.11,76.339 Z" id="Fill-62" fill="#5CC7C8"></path>
            <path d="M393.32,193.641 C394.11,192.396 394.83,191.149 395.55,189.899 C404.2,173.663 409.05,156.549 408.53,138.197 L408.52,137.952 C408.48,136.77 408.43,135.578 408.35,134.365 C407.56,134.5 406.77,134.641 405.98,134.747 C387.12,137.294 368.1,139.889 349.01,139.891 C325.13,139.895 301.95,138.621 279.21,133.885 C253.49,188.76 196.11,236.302 135.32,245.65 C118.95,248.167 102.03,248.938 85.61,246.342 C70.06,243.878 55.46,238.585 42.63,229.188 C38.95,226.484 35.67,222.615 30.98,221.656 C30.65,221.587 30.36,221.552 30.06,221.509 C33.35,225.093 36.78,228.501 40.31,231.685 C72.66,260.927 115.9,271.014 158.76,272.486 C236.01,275.138 347.7,266.04 393.32,193.641" id="Fill-63" fill="#90D9D7"></path>
            <g id="Group" transform="translate(279.994223, 136.000000)" fill="#81C6C2">
                <path d="M25.4741149,5 C25.4741149,5 32.1299301,13.4018458 25.4741149,33.9501268 C18.8182998,54.4984079 0,87.246613 0,87.246613 C0,87.246613 23.4747138,53.8656775 30.8541642,35.0280357 C38.2336146,16.1903938 30.8541642,5 30.8541642,5 L25.4741149,5 Z" id="Path-2"></path>
                <path d="M54.4741149,7 C54.4741149,7 61.1299301,15.4018458 54.4741149,35.9501268 C47.8182998,56.4984079 29,89.246613 29,89.246613 C29,89.246613 52.4747138,55.8656775 59.8541642,37.0280357 C67.2336146,18.1903938 59.8541642,7 59.8541642,7 L54.4741149,7 Z" id="Path-2"></path>
                <path d="M84.4741149,5 C84.4741149,5 91.1299301,13.4018458 84.4741149,33.9501268 C77.8182998,54.4984079 59,87.246613 59,87.246613 C59,87.246613 82.4747138,53.8656775 89.8541642,35.0280357 C97.2336146,16.1903938 89.8541642,5 89.8541642,5 L84.4741149,5 Z" id="Path-2"></path>
                <path d="M108.474115,0 C108.474115,0 115.12993,8.40184576 108.474115,28.9501268 C101.8183,49.4984079 83,82.246613 83,82.246613 C83,82.246613 106.474714,48.8656775 113.854164,30.0280357 C121.233615,11.1903938 113.854164,0 113.854164,0 L108.474115,0 Z" id="Path-2"></path>
            </g>
            <path d="M262.67,139.497 C267.38,144.019 273.74,146.182 280.05,147.313 C308,152.319 337.31,151.686 365.52,149.354 C374,148.651 382.45,147.658 390.84,146.29 C398.27,145.082 405.62,142.928 411.45,137.948 C415.63,134.381 415.93,128.203 413.48,123.511 C409.93,116.686 402.55,116.856 395.75,117.026 C394.08,117.068 392.46,117.109 390.92,117.049 C379.07,116.577 367.25,117.867 355.5,119.175 C342.6,120.611 327.98,125.716 315.05,124.358 C303.68,123.166 292.5,121.286 280.9,120.868 C270.43,120.496 248.72,126.105 262.67,139.497 Z" id="Fill-64" fill="#5CC7C8"></path>
            <path d="M169.27,302.3 C200.49,298.187 227.53,268.255 238.59,240.949 C245.06,224.985 250,206.093 241.02,190.254 C228.15,167.568 192.25,164.739 169.16,168.496 C145.12,172.408 130.18,198.857 141.02,219.414 C155.83,247.485 166.92,269.391 169.27,302.3" id="Fill-65" fill="#5CC7C8"></path>
            <path d="M415.03,129.856 L415.03,129.664 C415.01,127.551 414.47,125.409 413.48,123.511 C414.49,125.435 415.03,127.61 415.03,129.751 L415.03,129.856" id="Fill-66"></path>
            <path d="M265.76,104.639 C272.9,109.69 282.39,107.918 287.85,101.495 C293.2,95.201 293.03,85.419 289.91,78.224 C286.74,70.931 278.46,66.495 270.63,67.856 C255.5,70.489 254.71,96.824 265.76,104.639" id="Fill-80" fill="#FFFFFF"></path>
            <path d="M277.74,97.016 C281.75,98.604 284.73,95.154 285.48,91.627 C286.03,89.024 286.29,86.043 285.54,83.437 C284.69,80.447 282.14,77.622 278.83,77.769 C269.84,78.163 270.77,94.255 277.74,97.016" id="Fill-81" fill="#5D9B9C"></path>
            <path d="M279.23,87.389 C283.32,82.008 276.94,75 270.89,76.725 C260.56,79.67 273.6,94.791 279.23,87.389" id="Fill-82" fill="#FFFFFF"></path>
            <ellipse id="Oval" fill="#54B5B7" transform="translate(138.500000, 92.000000) rotate(16.000000) translate(-138.500000, -92.000000) " cx="138.5" cy="92" rx="8.5" ry="13"></ellipse>
            <ellipse id="Oval" fill="#54B5B7" transform="translate(120.965578, 106.531482) rotate(16.000000) translate(-120.965578, -106.531482) " cx="120.965578" cy="106.531482" rx="4.31405193" ry="6.59796177"></ellipse>
        </g>
    </g>
</svg>